<svg width="116" height="147" viewBox="0 0 116 147" fill="none" xmlns="http://www.w3.org/2000/svg">
<path d="M99.909 133.12L84.569 104.764C84.776 104.816 84.956 104.919 85.163 104.996C89.243 106.83 93.763 106.752 97.611 104.944L114.036 127.722C114.992 129.065 115.069 130.718 114.191 132.164C113.339 133.584 111.841 134.308 110.188 134.075L102.673 133.068C101.743 132.939 100.813 132.965 99.909 133.12ZM100.271 28.658C98.541 32.454 98.489 36.69 100.09 40.538C101.691 44.386 104.713 47.33 108.612 48.802C113.286 50.584 114.939 54.716 114.939 57.97C114.939 61.25 113.286 65.382 108.612 67.164C104.712 68.636 101.691 71.58 100.09 75.428C98.489 79.276 98.541 83.511 100.271 87.307C102.311 91.852 100.581 95.958 98.257 98.283C97.844 98.67 97.405 99.058 96.914 99.393C96.888 99.419 96.862 99.419 96.836 99.445C94.434 101.098 91.025 101.976 87.307 100.271C84.957 99.212 82.452 98.799 79.973 98.98C78.423 99.109 76.9 99.471 75.402 100.09C71.554 101.691 68.61 104.713 67.138 108.638C66.957 109.129 66.751 109.568 66.518 109.981C66.466 110.058 66.415 110.162 66.363 110.239C64.374 113.674 60.836 114.965 57.97 114.965C55.207 114.965 51.849 113.777 49.809 110.626C49.757 110.497 49.68 110.368 49.577 110.239C49.267 109.748 49.035 109.206 48.802 108.638C47.33 104.713 44.386 101.691 40.538 100.09C38.73 99.341 36.819 98.98 34.908 98.954C34.856 98.954 34.83 98.954 34.779 98.954C32.713 98.954 30.621 99.393 28.633 100.271C25.069 101.898 21.815 101.175 19.439 99.677C19.413 99.651 19.387 99.625 19.361 99.6C19.258 99.522 19.129 99.445 18.999 99.393C18.508 99.031 18.069 98.67 17.682 98.283C15.358 95.959 13.627 91.853 15.668 87.307C17.398 83.511 17.45 79.275 15.849 75.428C14.248 71.58 11.226 68.636 7.327 67.164C2.653 65.382 1 61.25 1 57.97C1 54.716 2.653 50.584 7.327 48.802C11.227 47.33 14.248 44.386 15.849 40.538C17.45 36.69 17.398 32.455 15.668 28.658C13.628 24.113 15.358 20.007 17.682 17.682C19.98 15.384 24.087 13.628 28.632 15.694C32.454 17.398 36.664 17.476 40.537 15.875C44.385 14.274 47.329 11.226 48.801 7.327C50.557 2.653 54.689 1 57.969 1C59.622 1 61.455 1.41301 63.134 2.42001C64.787 3.40101 66.259 4.977 67.137 7.327C68.609 11.226 71.553 14.274 75.401 15.875C79.275 17.45 83.484 17.399 87.306 15.694C91.851 13.628 95.932 15.384 98.256 17.682C100.581 20.007 102.311 24.113 100.271 28.658ZM94.563 57.97C94.563 37.801 78.138 21.376 57.969 21.376C37.8 21.376 21.375 37.801 21.375 57.97C21.375 78.165 37.8 94.564 57.969 94.564C78.138 94.564 94.563 78.165 94.563 57.97ZM90.406 143.45L93.298 137.898C93.815 136.917 94.486 136.09 95.287 135.419L78.527 104.481C78.14 104.584 77.752 104.713 77.391 104.868C74.86 105.901 72.949 107.89 71.968 110.446C71.813 110.833 71.658 111.221 71.477 111.582L83.021 142.985C83.589 144.509 84.88 145.49 86.533 145.619C88.133 145.723 89.631 144.922 90.406 143.45ZM89.398 57.97C89.398 75.298 75.298 89.399 57.969 89.399C40.64 89.399 26.54 75.298 26.54 57.97C26.54 40.641 40.64 26.541 57.969 26.541C75.298 26.541 89.398 40.641 89.398 57.97ZM77.416 52.856C76.254 49.266 73.077 46.942 69.307 46.942C67.835 46.942 66.544 46.012 66.105 44.618C64.917 41.028 61.741 38.73 57.97 38.73C54.199 38.73 51.023 41.028 49.835 44.618C49.396 46.012 48.105 46.942 46.633 46.942C42.863 46.942 39.686 49.266 38.524 52.856C37.362 56.446 38.576 60.19 41.623 62.385C42.811 63.263 43.302 64.787 42.837 66.181C41.675 69.745 42.889 73.489 45.936 75.71C49.009 77.931 52.934 77.931 55.982 75.71C57.17 74.858 58.771 74.858 59.959 75.71C61.483 76.82 63.239 77.389 64.969 77.389C66.725 77.389 68.455 76.821 70.005 75.71C73.052 73.489 74.266 69.744 73.104 66.155C72.639 64.786 73.13 63.263 74.318 62.384C77.364 60.19 78.578 56.446 77.416 52.856ZM69.307 52.107C65.588 52.107 62.334 49.757 61.172 46.219C60.63 44.489 59.158 43.895 57.97 43.895C56.782 43.895 55.31 44.489 54.768 46.219C53.606 49.757 50.352 52.107 46.633 52.107C44.825 52.107 43.792 53.321 43.431 54.457C43.069 55.567 43.199 57.169 44.645 58.227C47.666 60.396 48.906 64.244 47.77 67.756C47.202 69.486 48.028 70.829 48.984 71.527C49.94 72.224 51.489 72.612 52.961 71.527C54.459 70.442 56.215 69.9 57.971 69.9C59.727 69.9 61.483 70.442 62.981 71.527C64.453 72.612 66.002 72.224 66.958 71.527C67.914 70.83 68.74 69.487 68.172 67.756C67.036 64.244 68.275 60.396 71.297 58.227C72.743 57.168 72.872 55.567 72.511 54.457C72.147 53.321 71.114 52.107 69.307 52.107ZM38.549 104.868C37.903 104.584 37.206 104.403 36.535 104.274L21.247 135.6C21.944 136.246 22.512 137.02 22.977 137.898L25.895 143.45C26.67 144.922 28.142 145.748 29.769 145.619C31.396 145.49 32.713 144.509 33.281 142.985L44.67 111.995C44.412 111.504 44.179 110.988 43.973 110.446C42.991 107.889 41.08 105.901 38.549 104.868ZM18.612 105.074L2.265 127.723C1.284 129.066 1.232 130.719 2.084 132.165C2.962 133.585 4.46 134.309 6.113 134.076L13.602 133.069C14.635 132.94 15.668 132.966 16.675 133.198L30.336 105.178C26.489 106.779 22.279 106.675 18.612 105.074Z" stroke="#010101" stroke-width="2" stroke-miterlimit="10"/>
</svg>
