<svg width="123" height="146" viewBox="0 0 123 146" fill="none" xmlns="http://www.w3.org/2000/svg">
<path d="M1 57.644H121.977V77.59C121.977 80.447 119.64 82.784 116.783 82.784H116.342H111.381H75.877H6.63605H6.19403C3.33703 82.784 1 80.446 1 77.59V57.644ZM41.126 31.023V14.765H33.672C31.023 14.765 28.556 16.038 27.075 18.219L3.36304 52.424H119.613L95.901 18.219C94.421 16.037 91.953 14.765 89.304 14.765H81.538V30.997H81.642C83.096 30.997 84.239 32.166 84.239 33.594C84.239 35.022 83.096 36.191 81.642 36.191H78.941H43.723H41.334C39.88 36.191 38.737 35.022 38.737 33.594C38.737 32.243 39.776 31.126 41.126 31.023ZM113.743 139.637V87.979H112.418L51.8781 144.831H108.548C111.406 144.831 113.743 142.52 113.743 139.637ZM104.835 87.979H76.915L16.401 144.831H44.295L104.835 87.979ZM76.344 6.194C76.344 3.311 74.007 1 71.15 1H51.515C48.658 1 46.321 3.312 46.321 6.194V12.167V30.997H76.344V12.167V6.194ZM9.23303 139.637C9.23303 140.987 9.75201 142.234 10.609 143.169L69.331 87.979H9.23199V139.637H9.23303Z" stroke="#010101" stroke-width="2" stroke-miterlimit="10"/>
</svg>
