<svg width="116" height="151" viewBox="0 0 116 151" fill="none" xmlns="http://www.w3.org/2000/svg">
<path d="M1.001 70.358C1.001 67.532 3.313 65.22 6.139 65.22H108.892C109.252 65.22 109.586 65.246 109.92 65.323C112.258 65.811 114.03 67.892 114.03 70.358C114.03 73.184 111.718 75.496 108.892 75.496H88.701H67.611H47.419H26.329H6.138C3.313 75.496 1.001 73.184 1.001 70.358ZM6.138 149.992H108.891C111.717 149.992 114.029 147.68 114.029 144.854C114.029 142.028 111.717 139.716 108.891 139.716H88.7H67.61H47.419H26.329H6.138C3.312 139.716 1 142.028 1 144.854C1.001 147.68 3.313 149.992 6.138 149.992ZM106.322 134.579V80.634H91.269V134.579H106.322ZM86.26 48.986H29.668L14.127 60.083H102.263L86.26 48.986ZM60.52 31.158C60.381 31.064 60.227 31.023 60.083 30.944V25.43V21.723V21.551H73.261C75.958 21.551 78.553 20.498 80.531 18.545C82.458 16.593 83.536 14.024 83.536 11.275C83.536 5.598 78.938 1 73.261 1H65.221C59.544 1 54.946 5.598 54.946 11.275V21.722V25.454V31.002C54.829 31.071 54.699 31.104 54.586 31.182L36.861 43.846H78.835L60.52 31.158ZM65.041 134.579V80.634H49.988V134.579H65.041ZM23.76 134.579V80.634H8.707V134.579H23.76Z" stroke="#010101" stroke-width="2" stroke-miterlimit="10"/>
</svg>
