<svg width="94" height="147" viewBox="0 0 94 147" fill="none" xmlns="http://www.w3.org/2000/svg">
<path d="M76 101.756C75.178 114.409 75.8009 127.188 77.8929 139.717C78.1419 141.137 77.743 142.606 76.797 143.702C75.85 144.823 74.456 145.471 72.986 145.471H65.314C63.944 131.174 63.4709 116.552 63.9189 101.981C64.1929 92.84 65.712 84.993 67.307 76.699C67.656 74.905 68.005 73.112 68.328 71.269H85.291C84.768 72.614 84.22 73.934 83.672 75.254C80.06 83.871 76.647 91.991 76 101.756ZM62.424 75.751C62.698 74.281 62.972 72.787 63.271 71.267H30.442C30.915 74.306 31.513 77.27 32.111 80.134L32.4099 81.579C33.6059 87.457 34.3279 93.635 34.5769 99.962C34.9999 110.897 34.5519 120.96 34.1539 129.827C33.9049 135.357 33.656 140.612 33.656 145.47H60.333C58.963 131.123 58.49 116.451 58.938 101.83C59.236 92.29 60.781 84.245 62.424 75.751ZM15.297 140.239C15.222 141.634 15.6959 142.929 16.6169 143.926C17.5639 144.922 18.859 145.47 20.278 145.47H28.672C28.672 140.513 28.9209 135.183 29.1699 129.603C29.5689 120.835 30.017 110.897 29.593 100.136C29.369 94.108 28.671 88.18 27.526 82.575L27.2269 81.13C26.6039 77.967 25.932 74.6791 25.434 71.2661H8.24695C9.19395 74.0561 10.3889 76.746 11.6599 79.586L12.307 81.056C14.947 87.059 16.566 93.386 17.114 99.837C18.036 110.921 17.039 121.034 16.167 129.976C15.821 133.564 15.497 136.976 15.297 140.239ZM20.354 8.02502C21.101 6.85402 20.7519 5.31001 19.6069 4.58801C18.4359 3.84101 16.892 4.16402 16.145 5.33502L8.72192 16.893C8.47292 17.291 8.34802 17.765 8.34802 18.238V33.671H8.33899V46.459H5.98193C3.24193 46.459 1 48.701 1 51.441V61.3051C1 63.8211 2.84291 65.888 5.25891 66.237C5.48291 66.262 5.73196 66.287 5.98096 66.287H27.203C27.228 66.262 27.278 66.262 27.303 66.262C27.552 66.237 27.8009 66.237 28.0249 66.287H66.235H87.881C88.13 66.287 88.3789 66.262 88.6029 66.237C91.0189 65.888 92.8629 63.8211 92.8629 61.3051V51.441C92.8629 48.701 90.621 46.459 87.881 46.459H85.5129V41.4771H85.515V18.237C85.515 17.764 85.39 17.29 85.141 16.892L77.718 5.33405C76.971 4.16305 75.426 3.84004 74.256 4.58704C73.11 5.30904 72.7609 6.85405 73.5089 8.02405L80.533 18.959V33.67H80.5029V46.458H49.4309V33.67H49.422V3.49103C49.422 2.12103 48.3009 1 46.9309 1C45.5609 1 44.4399 2.12103 44.4399 3.49103V33.67H44.4199V46.458H13.349V33.67H13.329V18.959L20.354 8.02502Z" stroke="#010101" stroke-width="2" stroke-miterlimit="10"/>
</svg>
