<svg width="147" height="120" viewBox="0 0 147 120" fill="none" xmlns="http://www.w3.org/2000/svg">
<path d="M145.447 73.094V80.213C145.447 83.05 143.125 85.372 140.288 85.372H73.327H6.159C3.322 85.372 1 83.05 1 80.213V73.094C1 70.257 3.322 67.935 6.159 67.935H6.417H64.118H82.509H140.21C140.236 67.935 140.262 67.935 140.287 67.935C143.125 67.935 145.447 70.257 145.447 73.094ZM85.089 54.548V62.776H137.631V54.548C137.631 46.268 131.956 39.304 124.296 37.318L120.324 47.017C118.88 50.551 115.629 52.769 111.838 52.846C111.761 52.846 111.709 52.846 111.632 52.846C107.918 52.846 104.668 50.757 103.094 47.378L98.503 37.292C90.815 39.252 85.089 46.243 85.089 54.548ZM125.947 15.574C125.947 7.52597 119.395 1 111.373 1C103.325 1 96.799 7.52597 96.799 15.574C96.799 23.622 103.325 30.148 111.373 30.148C119.395 30.147 125.947 23.621 125.947 15.574ZM107.788 45.237C108.51 46.81 110.006 47.713 111.734 47.687C113.462 47.661 114.881 46.681 115.551 45.082L118.956 36.725H103.918L107.788 45.237ZM73.327 90.918C65.615 90.918 59.347 97.212 59.347 104.898C59.347 112.61 65.615 118.878 73.327 118.878C81.014 118.878 87.307 112.61 87.307 104.898C87.307 97.212 81.013 90.918 73.327 90.918ZM61.539 54.548C61.539 46.268 55.864 39.278 48.204 37.318L44.232 47.017C42.788 50.551 39.537 52.769 35.746 52.846C35.669 52.846 35.617 52.846 35.54 52.846C31.826 52.846 28.576 50.757 27.028 47.378L22.411 37.292C14.724 39.252 8.998 46.243 8.998 54.548V62.776H61.54L61.539 54.548ZM49.854 15.574C49.854 7.52597 43.302 1 35.28 1C27.232 1 20.706 7.52597 20.706 15.574C20.706 23.622 27.232 30.148 35.28 30.148C43.302 30.147 49.854 23.621 49.854 15.574ZM31.721 45.237C32.443 46.81 33.888 47.687 35.642 47.687C37.37 47.661 38.815 46.681 39.459 45.082L42.89 36.725H27.826L31.721 45.237Z" stroke="#010101" stroke-width="2" stroke-miterlimit="10"/>
</svg>
