<svg width="100" height="147" viewBox="0 0 100 147" fill="none" xmlns="http://www.w3.org/2000/svg">
<path d="M98.985 39.0285V50.9466C98.985 53.4486 98.037 54.2226 97.73 54.4806C96.373 55.6156 93.607 55.8736 89.996 55.1776C78.471 52.7266 67.126 56.7766 56.139 60.6726C45.459 64.4906 35.343 68.0505 25.278 66.0385V50.5866C27.276 50.9476 29.248 51.1026 31.245 51.1026C40.26 51.1026 49.172 47.9295 57.829 44.8595C68.637 41.0155 78.829 37.4046 88.997 39.5196C93.095 40.3446 96.45 40.1635 98.985 39.0285ZM88.997 24.8145C78.83 22.6735 68.637 26.2846 57.829 30.1286C49.173 33.1986 40.26 36.3715 31.245 36.3715C29.248 36.3715 27.275 36.2166 25.278 35.8556V45.3225C35.266 47.3865 45.408 43.7746 56.139 39.9826C67.126 36.0876 78.471 32.0376 89.996 34.4616C93.607 35.1836 96.347 34.9516 97.73 33.8166C98.037 33.5586 98.985 32.7586 98.985 30.2566V24.2725C96.45 25.4335 93.095 25.6135 88.997 24.8145ZM25.278 30.6186C35.266 32.6826 45.408 29.0705 56.139 25.2525C67.126 21.3575 78.471 17.3075 89.996 19.7575C93.53 20.4545 96.271 20.2216 97.653 19.1386C98.447 18.5196 98.882 17.5136 98.959 16.0686C98.652 10.4196 93.965 2.62852 88.997 1.64852C78.804 -0.51848 68.611 3.11854 57.829 6.93654C48.123 10.3675 38.16 13.9016 28.018 13.0246C28.658 14.8046 28.991 16.6875 28.991 18.6225C28.991 22.4665 27.685 26.1295 25.277 29.0705V30.6186H25.278ZM21.309 11.3745C21.309 11.3745 21.283 11.3485 21.258 11.3225C19.107 8.63953 15.88 7.09151 12.422 7.09151C6.122 7.09151 1 12.2505 1 18.6225C1 21.4605 2.05001 24.1946 3.92001 26.2846C3.97101 26.3366 4.02201 26.3875 4.07401 26.4395C6.22501 28.7865 9.247 30.1286 12.423 30.1286C15.624 30.1286 18.672 28.7615 20.797 26.4395C20.848 26.3875 20.874 26.3366 20.925 26.2846C22.846 24.1696 23.87 21.4605 23.87 18.6225C23.87 16.0425 22.999 13.5405 21.437 11.5285C21.411 11.4775 21.334 11.4255 21.309 11.3745ZM4.71301 33.3275V137.702C4.71301 139.766 5.507 141.7 6.992 143.197C8.452 144.667 10.373 145.467 12.421 145.467C16.698 145.467 20.155 141.984 20.155 137.702V67.9206V47.2315V33.3266C17.825 34.5906 15.161 35.2876 12.421 35.2876C9.70702 35.2876 7.06901 34.6175 4.71301 33.3275Z" stroke="#010101" stroke-width="2" stroke-miterlimit="10"/>
</svg>
