<svg width="120" height="146" viewBox="0 0 120 146" fill="none" xmlns="http://www.w3.org/2000/svg">
<path d="M116.905 88.88C117.876 89.852 118.413 91.13 118.413 92.511C118.413 93.866 117.876 95.145 116.905 96.116L112.021 101C110.103 102.918 106.728 102.943 104.811 101L78.859 75.073L90.927 62.902L116.905 88.88ZM88.7791 22.913L68.375 2.483C67.403 1.537 66.125 1 64.744 1C63.389 1 62.11 1.537 61.139 2.483L56.358 7.26401L83.921 35.006L88.7791 30.148C90.7731 28.154 90.7731 24.907 88.7791 22.913ZM87.296 59.272L77.119 49.096L64.999 61.19L75.252 71.469L87.296 59.272ZM81.108 139.891V135.34C81.108 132.527 78.832 130.226 75.994 130.226H59.988H22.146H6.11401C3.30101 130.226 1 132.527 1 135.34V139.891C1 142.703 3.30101 145.005 6.11401 145.005H75.994C78.833 145.004 81.108 142.703 81.108 139.891ZM54.746 64.181L59.553 59.374L75.278 43.649L80.3149 38.612L52.726 10.895L27.208 36.438L54.746 64.181ZM22.146 125.112H59.988C62.8 125.112 65.1021 122.811 65.1021 119.998V115.447C65.1021 112.609 62.801 110.333 59.988 110.333H22.146C19.334 110.333 17.032 112.609 17.032 115.447V119.998C17.032 122.811 19.334 125.112 22.146 125.112ZM38.817 72.874C40.76 74.817 44.135 74.817 46.053 72.874L51.141 67.786L23.578 40.069L18.413 45.234C17.441 46.18 16.9041 47.484 16.9041 48.839C16.9041 50.22 17.441 51.498 18.413 52.47L38.817 72.874Z" stroke="#010101" stroke-width="2" stroke-miterlimit="10"/>
</svg>
