<svg width="148" height="147" viewBox="0 0 148 147" fill="none" xmlns="http://www.w3.org/2000/svg">
<path d="M1 38.8516C1 35.9656 3.31407 33.6776 6.17407 33.6516H6.20007H141.405C144.265 33.6516 146.605 35.9656 146.605 38.8516C146.605 41.7116 144.265 44.0516 141.405 44.0516H136.387H115.482H101.623H80.718H66.8861H45.9811H32.1221H11.217H6.1991C3.3401 44.0516 1 41.7116 1 38.8516ZM141.405 135.601H6.20007C3.34007 135.601 1 137.941 1 140.801C1 143.661 3.34007 146.001 6.20007 146.001H141.405C144.265 146.001 146.605 143.661 146.605 140.801C146.605 137.941 144.265 135.601 141.405 135.601ZM8.80005 116.464V130.4H138.805V116.464C138.805 113.604 136.465 111.264 133.605 111.264H115.482H101.623H80.718H66.8861H45.9811H32.1221H13.999C11.14 111.264 8.80005 113.604 8.80005 116.464ZM133.786 49.2516H118.082V106.064H133.786V49.2516ZM76.3241 1.66965C74.7121 0.785649 72.892 0.785647 71.332 1.61765L17.25 28.4506H130.354L76.3241 1.66965ZM83.3191 49.2516V106.064H99.024V49.2516H83.3191ZM48.5811 49.2516V106.064H64.286V49.2516H48.5811ZM29.5231 49.2516H13.8191V106.064H29.5231V49.2516Z" stroke="#010101" stroke-width="2" stroke-miterlimit="10"/>
</svg>
