<svg width="137" height="146" viewBox="0 0 137 146" fill="none" xmlns="http://www.w3.org/2000/svg">
<path d="M118.65 3.28454C125.214 12.7535 136.109 32.4956 135.098 58.5426C134.268 80.2826 125.681 96.8076 118.624 106.822C117.249 108.794 114.707 109.572 112.424 108.742L104.486 105.785C111.153 95.2256 118.443 79.1416 119.221 58.7506C120.129 35.0646 112.087 16.4385 104.46 4.29653L112.424 1.33953C114.706 0.483528 117.249 1.28754 118.65 3.28454ZM41.0809 144.076C42.2479 144.88 43.6749 145.166 45.0759 144.88L50.342 143.842C53.248 143.271 55.115 140.47 54.545 137.616L51.7109 123.176H61.879V123.166H70.603C74.053 123.166 77.2439 121.48 79.1899 118.626L87.5909 106.299L91.3259 100.886L99.5029 103.943C105.963 93.9805 113.279 78.4146 114.031 58.5426C114.965 34.5976 105.807 15.9965 99.4769 6.16454L43.468 26.9965V83.0586L48.1899 84.8225L48.2679 84.8485L86.109 98.9436L83.286 103.406L83.264 103.398L74.911 115.721C73.925 117.148 72.317 117.978 70.604 117.978H61.88V117.791H50.6589L45.077 89.1815L40.459 87.4696H28.37L38.851 140.678C39.109 142.079 39.9139 143.298 41.0809 144.076ZM38.2789 27.8005H27.4609C24.5809 27.8005 22.2729 30.1096 22.2729 32.9896V35.4805V74.6026V77.0926C22.2729 79.2976 23.648 81.1916 25.594 81.9436C25.646 81.9436 25.672 81.9436 25.698 81.9696C25.88 81.9956 26.035 82.0476 26.191 82.1256C26.606 82.2296 27.021 82.2815 27.462 82.2815H38.28V27.8005H38.2789ZM1 43.2625V66.8186C1 69.6726 3.33499 72.0075 6.18799 72.0075H17.084V38.0745H6.18799C3.33399 38.0735 1 40.3825 1 43.2625Z" stroke="#010101" stroke-width="2" stroke-miterlimit="10"/>
</svg>
