<svg width="76" height="147" viewBox="0 0 76 147" fill="none" xmlns="http://www.w3.org/2000/svg">
<path d="M73.1567 53.097C74.1407 54.547 74.3217 56.308 73.6747 57.913L68.9357 69.668C68.1587 71.636 66.2687 72.905 64.1457 72.905H50.1637H10.9097C8.78667 72.905 6.89669 71.636 6.11969 69.668L1.38068 57.913C0.733677 56.308 0.914683 54.547 1.89868 53.097C2.88268 51.647 4.43572 50.818 6.19672 50.818H12.9027H62.1517H68.8577C70.6197 50.819 72.1727 51.647 73.1567 53.097ZM37.5277 1C22.7427 1 10.5207 12.367 9.22669 26.815H65.8297C64.5347 12.367 52.3127 1 37.5277 1ZM14.2497 45.64H60.8057C63.7057 41.549 65.3887 36.914 65.8287 31.994H9.22571C9.66671 36.914 11.3497 41.549 14.2497 45.64ZM27.4817 140.824C27.4817 143.672 29.8117 146.003 32.6607 146.003H42.3967C45.2447 146.003 47.5757 143.673 47.5757 140.824V128.007H27.4827L27.4817 140.824ZM27.4817 122.828H47.5747V114.672H27.4817V122.828ZM27.4817 109.493H47.5747V78.136H27.4817V109.493Z" stroke="#010101" stroke-width="2" stroke-miterlimit="10"/>
</svg>
