<svg width="148" height="148" viewBox="0 0 148 148" fill="none" xmlns="http://www.w3.org/2000/svg">
<path d="M128.932 107.169V123.848C128.932 126.701 126.597 129.036 123.744 129.036H107.065C104.212 129.036 101.877 126.701 101.877 123.848V107.169C101.877 104.316 104.211 101.981 107.065 101.981H123.744C126.597 101.981 128.932 104.315 128.932 107.169ZM146.259 6.18698V141.071C146.259 143.924 143.924 146.259 141.071 146.259H36.381V49.921V6.18799C36.381 3.33499 38.715 1 41.569 1H141.072C143.925 0.999 146.259 3.33398 146.259 6.18698ZM51.763 42.035C51.763 47.767 56.432 52.411 62.139 52.411H122.162C127.894 52.411 132.538 47.768 132.538 42.035V26.938C132.538 21.205 127.895 16.562 122.162 16.562H62.139C56.432 16.562 51.763 21.205 51.763 26.938V42.035ZM132.537 66.159C132.537 64.732 131.396 63.565 129.943 63.565H55.757C54.304 63.565 53.163 64.732 53.163 66.159C53.163 67.612 54.304 68.753 55.757 68.753H129.943C131.396 68.753 132.537 67.611 132.537 66.159ZM129.943 78.713H55.757C54.304 78.713 53.163 79.88 53.163 81.307C53.163 82.76 54.304 83.901 55.757 83.901H129.943C131.396 83.901 132.537 82.76 132.537 81.307C132.537 79.88 131.396 78.713 129.943 78.713ZM86.417 126.908C86.417 125.455 85.25 124.314 83.823 124.314H55.757C54.304 124.314 53.163 125.455 53.163 126.908C53.163 128.335 54.304 129.502 55.757 129.502H83.823C85.25 129.502 86.417 128.335 86.417 126.908ZM86.417 106.65C86.417 105.223 85.25 104.056 83.823 104.056H55.757C54.304 104.056 53.163 105.223 53.163 106.65C53.163 108.077 54.304 109.244 55.757 109.244H83.823C85.25 109.244 86.417 108.076 86.417 106.65ZM134.12 107.169C134.12 101.436 129.477 96.793 123.744 96.793H107.065C101.358 96.793 96.689 101.436 96.689 107.169V123.848C96.689 129.555 101.358 134.224 107.065 134.224H123.744C129.477 134.224 134.12 129.555 134.12 123.848V107.169ZM62.138 47.223H122.161C125.04 47.223 127.349 44.888 127.349 42.035V26.938C127.349 24.085 125.04 21.75 122.161 21.75H62.138C59.285 21.75 56.95 24.084 56.95 26.938V42.035C56.95 44.889 59.285 47.223 62.138 47.223ZM31.193 133.393H23.878C18.171 133.393 13.502 128.724 13.502 123.017V66.158C13.502 64.731 14.669 63.564 16.096 63.564C17.523 63.564 18.69 64.731 18.69 66.158V123.017C18.69 125.87 21.024 128.205 23.878 128.205H31.193V52.514H6.18799C3.33499 52.514 1 54.823 1 57.702V141.071C1 143.924 3.33499 146.259 6.18799 146.259H31.193V133.393Z" stroke="#010101" stroke-width="2" stroke-miterlimit="10"/>
</svg>
