<svg width="104" height="147" viewBox="0 0 104 147" fill="none" xmlns="http://www.w3.org/2000/svg">
<path d="M2.04874 81.747C0.751737 79.75 0.648826 77.313 1.78983 75.187C2.93083 73.035 5.10878 71.738 7.54678 71.738H96.2288C98.6408 71.738 100.793 73.035 101.986 75.161C103.127 77.235 103.049 79.673 101.779 81.644C100.716 83.304 99.7308 84.989 98.8228 86.7H5.03177C4.12377 85.014 3.11274 83.381 2.04874 81.747ZM98.8998 66.5V60.38C98.8998 57.528 96.5658 55.194 93.7138 55.194H84.8147V50.008H84.8197V29.938C84.8197 24.233 80.3857 19.618 74.9397 19.618C73.4877 19.618 72.3468 20.785 72.3468 22.211C72.3468 23.637 73.4877 24.804 74.9397 24.804C77.5067 24.804 79.6327 27.112 79.6327 29.938V45.28H79.6277V55.194H70.7378C68.5858 55.194 66.7448 56.516 65.9668 58.358C65.7078 58.98 65.5518 59.655 65.5518 60.381V66.501H96.2278L98.8998 66.5ZM96.3068 91.886H7.62479C10.0358 97.176 11.7478 102.699 12.7068 108.352C14.3408 117.972 13.8738 127.696 11.2808 137.265C10.7358 139.236 11.1508 141.31 12.3958 142.918C13.6408 144.552 15.5078 145.485 17.5558 145.485H86.0378C88.0608 145.485 89.9278 144.552 91.1718 142.97C92.4168 141.388 92.8318 139.392 92.3648 137.447C89.9268 127.723 89.5898 117.844 91.3278 108.094C92.3128 102.544 93.9728 97.124 96.3068 91.886ZM60.3667 66.552V66.495H60.9738V56.952C60.9908 56.904 60.9978 56.851 61.0158 56.802C61.0058 56.739 60.9848 56.681 60.9738 56.618V56.478L60.9447 56.488C59.6247 48.6 53.9928 42.299 46.6498 39.869L42.0088 50.034C40.4008 53.586 37.0038 55.765 33.1408 55.765C33.0628 55.765 32.9848 55.765 32.9328 55.765C28.9648 55.687 25.5687 53.353 24.0647 49.697L20.0718 39.895C11.6188 42.747 5.52481 50.734 5.52481 60.121V66.733C6.17281 66.603 6.84776 66.551 7.54776 66.551L60.3667 66.552ZM33.4247 32.038C41.9817 32.038 48.9308 25.089 48.9308 16.532C48.9308 7.975 41.9817 1 33.4247 1C24.8417 1 17.8927 7.975 17.8927 16.532C17.8927 25.089 24.8417 32.038 33.4247 32.038ZM25.2307 38.832L28.8607 47.726C29.5867 49.463 31.1428 50.527 33.0358 50.578C34.8768 50.578 36.5107 49.619 37.2887 47.881L41.4378 38.831C40.9188 38.779 40.4007 38.753 39.8817 38.753H26.9428C26.3718 38.755 25.8017 38.78 25.2307 38.832Z" stroke="#010101" stroke-width="2" stroke-miterlimit="10"/>
</svg>
