<svg width="150" height="133" viewBox="0 0 150 133" fill="none" xmlns="http://www.w3.org/2000/svg">
<path d="M69.8625 15.675C69.9615 15.774 70.0356 15.897 70.1096 15.996C70.1346 16.045 70.1585 16.07 70.1835 16.119L70.2086 16.144C70.2576 16.169 70.2825 16.193 70.3315 16.218C70.4305 16.267 70.5285 16.341 70.6025 16.415C70.6515 16.464 70.7015 16.489 70.7505 16.538C73.8085 19.029 78.6926 19.029 81.7756 16.538C81.8246 16.489 81.8745 16.464 81.9235 16.415C81.9975 16.341 82.0965 16.267 82.1945 16.218C82.2435 16.193 82.2686 16.169 82.3176 16.144L82.3425 16.119C82.3675 16.07 82.3916 16.045 82.4166 15.996C82.4906 15.897 82.5646 15.774 82.6636 15.675C82.6886 15.65 82.6885 15.65 82.7125 15.626C84.1925 14.023 85.0065 11.926 85.0065 9.731C85.0065 7.536 84.1925 5.464 82.7125 3.861C82.6875 3.836 82.6876 3.836 82.6636 3.812C81.0116 1.987 78.7426 1 76.2756 1C73.8096 1 71.5645 1.962 69.9125 3.738C69.8875 3.763 69.8875 3.76299 69.8635 3.78699C69.8385 3.81199 69.8145 3.861 69.7645 3.886C68.3335 5.489 67.5195 7.561 67.5195 9.731C67.5195 11.926 68.3335 14.023 69.8135 15.626C69.8385 15.65 69.8385 15.65 69.8625 15.675Z" stroke="#010101" stroke-width="2" stroke-miterlimit="10"/>
<path d="M81.7493 22.2598C80.0473 23.0248 78.1733 23.4188 76.2743 23.4188C74.3503 23.4188 72.5003 23.0238 70.7743 22.2598L66.1133 101.307H86.4113L81.7493 22.2598Z" stroke="#010101" stroke-width="2" stroke-miterlimit="10"/>
<path d="M89.0258 106.24H63.4988H63.2767C60.5637 106.24 58.3438 108.46 58.3438 111.173V111.642C58.3438 114.355 60.5637 116.575 63.2767 116.575H89.2477C91.9607 116.575 94.1807 114.355 94.1807 111.642V111.173C94.1807 108.46 91.9607 106.24 89.2477 106.24H89.0258Z" stroke="#010101" stroke-width="2" stroke-miterlimit="10"/>
<path d="M31.3498 19.8312L29.5338 14.9102H63.6208C62.9298 13.2822 62.5848 11.5312 62.5848 9.73117C62.5848 7.93117 62.9298 6.17917 63.6208 4.57617H25.4168C24.0598 4.57617 22.7528 5.11917 21.7908 6.10517C20.8048 7.06717 20.2618 8.37417 20.2618 9.73017C20.2618 12.5912 22.5798 14.9092 25.4168 14.9092H26.5748L24.6028 19.7932L3.19482 68.4542C2.97282 68.7012 2.79983 68.9472 2.62783 69.2192C0.728832 72.1292 0.481822 75.7792 1.93682 78.9612C6.57382 89.0982 16.8088 95.6582 27.9568 95.6582C39.1298 95.6582 49.3398 89.0982 54.0018 78.9612C55.4568 75.7792 55.2098 72.1292 53.3108 69.2192C53.1378 68.9482 52.9658 68.7012 52.7438 68.4542L31.3608 19.8422L31.3498 19.8312ZM44.8518 64.5832H11.0868C10.8158 64.5832 10.5198 64.5832 10.2478 64.6322L27.9568 24.3812L45.6898 64.6322C45.4198 64.5832 45.1238 64.5832 44.8518 64.5832Z" stroke="#010101" stroke-width="2" stroke-miterlimit="10"/>
<path d="M147.355 69.2202C147.182 68.9492 147.01 68.7022 146.788 68.4552L125.349 19.7052L123.58 14.9102H127.106C128.463 14.9102 129.77 14.3672 130.732 13.3812C131.719 12.4192 132.261 11.1122 132.261 9.73117C132.261 6.89517 129.943 4.57617 127.106 4.57617H88.9258C89.5918 6.17917 89.9368 7.93017 89.9368 9.73117C89.9368 11.5322 89.5918 13.2832 88.9258 14.9102H120.62L118.684 19.7052L97.2368 68.4552C97.0148 68.7022 96.8418 68.9482 96.6698 69.2202C95.5848 70.8722 95.0417 72.7712 95.0417 74.6952C95.0417 76.1262 95.3628 77.6052 95.9788 78.9622C100.64 89.0992 110.851 95.6592 122.024 95.6592C133.172 95.6592 143.407 89.0992 148.044 78.9622C149.501 75.7802 149.254 72.1302 147.355 69.2202ZM138.895 64.5832H105.13C104.859 64.5832 104.563 64.5832 104.292 64.6322L122.025 24.3812L139.734 64.6322C139.462 64.5832 139.166 64.5832 138.895 64.5832Z" stroke="#010101" stroke-width="2" stroke-miterlimit="10"/>
<path d="M101.529 121.507H89.2466H63.2746H50.9916C48.2786 121.507 46.0586 123.702 46.0586 126.44V126.884C46.0586 129.597 48.2786 131.817 50.9916 131.817H101.528C104.241 131.817 106.461 129.597 106.461 126.884V126.44C106.461 123.702 104.242 121.507 101.529 121.507Z" stroke="#010101" stroke-width="2" stroke-miterlimit="10"/>
</svg>
