<svg width="101" height="146" viewBox="0 0 101 146" fill="none" xmlns="http://www.w3.org/2000/svg">
<path d="M50.0911 1C23.0141 1 1 23.014 1 50.091C1 69.804 12.71 87.523 30.838 95.27C30.864 95.27 30.864 95.27 30.864 95.27C36.949 97.852 43.5461 99.156 50.0911 99.156C56.8151 99.156 63.514 97.801 69.676 95.091C87.599 87.318 99.182 69.651 99.182 50.091C99.182 23.014 77.1681 1 50.0911 1ZM50.0911 87.087C29.6881 87.087 13.094 70.493 13.094 50.09C13.094 29.687 29.6881 13.093 50.0911 13.093C70.4941 13.093 87.088 29.687 87.088 50.09C87.088 70.494 70.4941 87.087 50.0911 87.087ZM50.0911 18.207C32.5001 18.207 18.208 32.5 18.208 50.09C18.208 67.681 32.5001 81.973 50.0911 81.973C67.6821 81.973 81.974 67.68 81.974 50.09C81.974 32.5 67.6821 18.207 50.0911 18.207ZM67.2471 54.616C65.9171 55.562 65.3801 57.25 65.8921 58.784C67.0941 62.491 65.841 66.378 62.67 68.653C61.085 69.804 59.295 70.392 57.48 70.392C55.665 70.392 53.849 69.804 52.29 68.653C50.961 67.707 49.2221 67.707 47.8921 68.653C44.7471 70.954 40.656 70.954 37.511 68.653C34.341 66.378 33.0881 62.491 34.2891 58.784C34.8001 57.25 34.2631 55.562 32.9341 54.616C29.7891 52.315 28.536 48.454 29.738 44.721C30.94 41.014 34.238 38.61 38.15 38.61C39.761 38.61 41.193 37.587 41.678 36.053C42.88 32.346 46.1781 29.942 50.0901 29.942C54.0021 29.942 57.3001 32.345 58.5021 36.053C58.9881 37.587 60.42 38.61 62.03 38.61C65.942 38.61 69.24 41.013 70.442 44.721C71.645 48.454 70.3921 52.315 67.2471 54.616ZM52.6481 104.218C57.9921 103.988 63.2081 102.965 68.1681 101.15V139.732C68.1681 142.57 66.097 143.874 64.333 144.13C62.594 144.36 60.242 143.695 59.475 140.96C58.478 137.559 55.9211 135.13 52.6481 134.338V104.218ZM65.5851 46.306C65.9941 47.559 65.841 49.298 64.23 50.474C61.111 52.75 59.8321 56.713 61.0081 60.369C61.6471 62.261 60.727 63.744 59.678 64.537C58.604 65.304 56.891 65.688 55.28 64.537C53.72 63.386 51.9051 62.824 50.0901 62.824C48.2751 62.824 46.459 63.386 44.9 64.537C43.289 65.688 41.5761 65.304 40.5021 64.537C39.4541 63.744 38.533 62.261 39.172 60.369C40.348 56.713 39.0701 52.75 35.9501 50.474C34.3391 49.298 34.1861 47.559 34.5951 46.306C35.0041 45.079 36.129 43.724 38.149 43.724C41.984 43.724 45.359 41.27 46.535 37.639C47.174 35.721 48.785 35.057 50.089 35.057C51.393 35.057 53.0041 35.722 53.6431 37.639C54.8191 41.27 58.1941 43.724 62.0291 43.724C64.0511 43.724 65.1761 45.079 65.5851 46.306ZM32.3981 101.329C37.2811 103.016 42.3441 103.988 47.5341 104.218V134.439C44.4661 135.308 42.0371 137.686 41.0911 140.984C40.2471 143.95 37.691 144.18 36.923 144.18C34.75 144.18 32.3981 142.799 32.3981 139.731V101.329Z" stroke="#010101" stroke-width="2" stroke-miterlimit="10"/>
</svg>
