<svg width="135" height="147" viewBox="0 0 135 147" fill="none" xmlns="http://www.w3.org/2000/svg">
<path d="M125.807 79.46C127.228 79.46 128.39 78.297 128.39 76.877L128.364 57.449C128.364 57.165 128.39 56.907 128.467 56.648C128.596 56.08 128.906 55.563 129.345 55.15C129.991 54.556 130.843 54.272 131.722 54.323C132.781 54.4 133.66 55.408 133.66 56.596V93.979C133.66 99.456 132.988 104.907 131.671 110.229L125.548 123.999C125.419 124.335 125.341 124.697 125.341 125.058C125.341 127.796 125.393 128.959 125.444 130.354C125.496 132.059 125.547 134.126 125.599 139.809C125.599 141.385 125.005 142.857 123.894 143.968C122.809 145.053 121.336 145.673 119.812 145.673H103.665C100.462 145.673 97.8521 143.064 97.8521 139.886V122.783C97.8521 119.812 96.3021 117.022 93.7441 115.523C89.1191 112.759 86.1491 109.762 85.9681 107.695C85.6581 104.414 83.1261 100.435 80.1551 95.811C77.5461 91.703 73.9551 86.097 74.3681 83.591C74.3941 83.41 74.4451 83.255 74.4711 83.074C74.7551 81.937 75.2461 81.214 75.8401 81.111C76.6921 80.956 78.5531 81.731 80.3091 84.521C82.0921 87.389 84.1071 90.696 85.7601 93.46C86.7681 95.165 88.7311 95.94 90.6431 95.423C92.5551 94.906 93.8211 93.227 93.8211 91.238V54.165C93.8211 53.416 94.1051 52.718 94.6741 52.176C95.0871 51.763 95.8111 51.272 96.8701 51.349C98.3171 51.452 99.5051 52.847 99.5051 54.475V55.302V76.874C99.5051 78.295 100.668 79.457 102.088 79.457C103.535 79.457 104.671 78.294 104.671 76.874V55.302V54.475V46.079C104.671 44.503 105.963 43.237 107.513 43.237H108.572C110.122 43.237 111.414 44.503 111.414 46.079V48.197V76.874C111.414 78.295 112.577 79.457 113.997 79.457C115.418 79.457 116.58 78.294 116.58 76.874V48.197C116.58 46.621 117.872 45.329 119.448 45.329H120.326C121.902 45.329 123.168 46.621 123.168 48.171V56.076C123.168 56.283 123.194 56.489 123.245 56.67C123.193 56.954 123.193 57.213 123.193 57.471L123.219 76.873C123.223 78.297 124.386 79.46 125.807 79.46ZM69.9781 77.832L70.8311 74.499C73.2341 64.94 74.4481 55.097 74.4481 45.228V14.356C74.4481 13.168 73.5961 12.16 72.5361 12.083C71.6321 12.031 70.8051 12.316 70.1591 12.936C69.7201 13.349 69.4101 13.84 69.2811 14.409C69.1781 14.641 69.1521 14.926 69.1521 15.184L69.1781 34.612C69.1781 36.033 68.0411 37.195 66.5951 37.195C65.1741 37.195 64.0121 36.058 64.0121 34.612L63.9861 15.236C63.9861 14.952 64.0121 14.693 64.0381 14.435C63.9861 14.254 63.9601 14.047 63.9601 13.841V5.936C63.9601 4.386 62.6941 3.094 61.1181 3.094H60.2401C58.6641 3.094 57.3721 4.386 57.3721 5.962V34.638C57.3721 36.059 56.2091 37.221 54.7891 37.221C53.3691 37.221 52.2061 36.059 52.2061 34.638V5.96V3.842C52.2061 2.266 50.9401 1 49.3641 1H48.3311C46.7551 1 45.4891 2.266 45.4891 3.842V12.238V13.065V34.611C45.4891 36.058 44.3261 37.194 42.9061 37.194C41.4591 37.194 40.3231 36.057 40.3231 34.611V13.065V12.238C40.3231 10.61 39.1351 9.19 37.6881 9.112C36.6291 9.034 35.8801 9.525 35.4401 9.964C34.9231 10.481 34.6391 11.178 34.6391 11.953V49C34.6391 50.989 33.3471 52.669 31.4361 53.185C29.5241 53.702 27.5611 52.901 26.5791 51.222C24.9261 48.484 22.9101 45.125 21.1021 42.283C19.3451 39.467 17.4851 38.692 16.6321 38.873C15.9601 39.002 15.4181 39.932 15.1851 41.327C14.7721 43.859 18.3631 49.491 20.9981 53.624C23.9431 58.222 26.4751 62.201 26.7851 65.456C26.9661 67.549 29.9371 70.545 34.5611 73.31C37.0931 74.808 38.6691 77.598 38.6691 80.544V92.609C38.6691 92.687 38.6691 92.764 38.6691 92.842V98.138H66.6221C67.1621 91.318 68.2981 84.498 69.9781 77.832ZM64.7081 143.969C65.7931 142.858 66.4131 141.411 66.3871 139.836C66.3611 134.669 66.3101 127.72 66.2581 120.77V118.858H38.6671V139.887C38.6671 143.065 41.2761 145.674 44.4801 145.674H60.6011C62.1501 145.674 63.6221 145.054 64.7081 143.969ZM66.2831 103.305H38.6661V106.431C38.6661 106.483 38.6661 106.534 38.6661 106.586V113.691H66.2061C66.1801 112.141 66.1801 110.643 66.1801 109.196C66.1541 107.93 66.1801 106.638 66.2321 105.321C66.2321 104.675 66.2581 104.003 66.2831 103.305ZM22.8811 109.041C17.3011 111.676 9.52409 115.681 3.19509 120.382C2.00709 121.26 1.25711 122.552 1.05111 124.025C0.89611 125.394 1.23211 126.738 2.05911 127.823C2.11111 127.901 2.16207 127.952 2.21407 128.03C4.04807 130.252 7.38111 130.588 9.62911 128.779C15.0541 124.439 23.5021 118.419 33.5001 113.795V108.886C30.0631 108.756 26.5241 108.808 22.8811 109.041ZM6.32107 105.915C6.70907 105.915 7.01906 105.889 7.25106 105.837C12.2891 104.881 17.2491 104.235 22.0801 103.899C22.1321 103.899 22.1831 103.899 22.2351 103.899C26.0841 103.641 29.8561 103.589 33.4991 103.718V100.721V94.986C27.1691 94.469 15.4411 93.901 5.57211 95.399C4.09911 95.606 2.8341 96.381 1.9811 97.595C1.1281 98.783 0.818112 100.23 1.10311 101.677C1.59311 104.132 3.78907 105.915 6.32107 105.915Z" stroke="#010101" stroke-width="2" stroke-miterlimit="10"/>
</svg>
